<?xml version="1.0" standalone="no"?>
<!DOCTYPE svg PUBLIC "-//W3C//DTD SVG 20010904//EN"
 "http://www.w3.org/TR/2001/REC-SVG-20010904/DTD/svg10.dtd">
<svg version="1.0" xmlns="http://www.w3.org/2000/svg"
 width="400.000000pt" height="400.000000pt" viewBox="0 0 400.000000 400.000000"
 preserveAspectRatio="xMidYMid meet">
<metadata>
Created by potrace 1.14, written by Peter Selinger 2001-2017
</metadata>
<g transform="translate(0.000000,400.000000) scale(0.100000,-0.100000)"
fill="#000000" stroke="none">
<path d="M2225 2569 l-50 -6 43 -1 42 -2 0 -560 0 -560 -42 -2 -43 -1 50 -6
c28 -3 137 -5 243 -3 l192 3 -1 152 c-1 128 -3 142 -10 89 -22 -168 -77 -232
-200 -232 l-49 0 0 559 0 560 43 3 c23 2 -5 6 -63 8 -58 3 -127 2 -155 -1z"/>
<path d="M3225 2570 c-126 -3 -211 -7 -187 -8 l42 -2 0 -559 0 -560 -42 -4
c-24 -2 66 -4 200 -5 l242 -2 0 145 c0 153 -13 194 -23 73 -11 -135 -77 -208
-189 -208 l-48 0 0 280 0 280 34 0 c45 0 81 -42 95 -112 5 -29 12 -62 14 -73
3 -11 5 79 5 200 0 209 -1 217 -13 153 -20 -99 -42 -130 -102 -143 l-33 -7 0
271 0 271 46 0 c51 0 115 -30 138 -65 22 -33 46 -124 46 -172 0 -27 4 -42 10
-38 12 7 14 282 3 287 -5 2 -111 1 -238 -2z"/>
<path d="M583 2563 l47 -4 0 -559 0 -559 -47 -4 c-27 -2 63 -4 200 -5 l247 -2
0 145 c0 148 -15 200 -22 78 -7 -136 -76 -213 -190 -213 l-48 0 0 280 0 280
33 0 c58 0 97 -60 97 -151 0 -27 5 -49 10 -49 6 0 10 79 10 216 0 141 -3 213
-10 209 -5 -3 -10 -29 -10 -56 0 -79 -37 -133 -98 -145 l-32 -6 0 272 0 272
54 -4 c79 -7 129 -42 151 -108 9 -27 20 -72 25 -98 6 -36 8 -16 9 86 l1 132
-237 -2 c-131 -1 -217 -3 -190 -5z"/>
<path d="M1408 2563 l42 -4 0 -559 0 -559 -42 -4 c-24 -2 66 -4 200 -5 l242
-2 -1 153 -1 152 -14 -70 c-7 -38 -16 -84 -19 -101 -12 -70 -89 -123 -177
-124 l-48 0 0 559 0 560 43 4 c23 2 -28 4 -113 4 -85 0 -136 -2 -112 -4z"/>
</g>
</svg>
